<mxfile host="app.diagrams.net" modified="2021-05-17T02:47:04.001Z" agent="5.0 (Windows NT 10.0; Win64; x64) AppleWebKit/537.36 (KHTML, like Gecko) Chrome/90.0.4430.212 Safari/537.36" etag="R7jYhoU0CYXaETaNY5lz" version="14.6.11" type="github" pages="4">
  <diagram id="qkGeBo4e7AZ9D-2uLI6Y" name="登录图">
    <mxGraphModel dx="1037" dy="588" grid="1" gridSize="10" guides="1" tooltips="1" connect="1" arrows="1" fold="1" page="1" pageScale="1" pageWidth="850" pageHeight="1100" math="0" shadow="0">
      <root>
        <mxCell id="0" />
        <mxCell id="1" parent="0" />
        <mxCell id="Es_6yVM3xkazfsAKDXxf-9" value="" style="whiteSpace=wrap;html=1;" vertex="1" parent="1">
          <mxGeometry x="80" y="80" width="720" height="360" as="geometry" />
        </mxCell>
        <mxCell id="Es_6yVM3xkazfsAKDXxf-2" value="" style="whiteSpace=wrap;html=1;dashed=1;" vertex="1" parent="1">
          <mxGeometry x="240" y="160" width="410" height="240" as="geometry" />
        </mxCell>
        <mxCell id="Es_6yVM3xkazfsAKDXxf-3" value="&lt;font style=&quot;font-size: 20px&quot;&gt;用户登录&lt;/font&gt;" style="text;html=1;resizable=0;autosize=1;align=center;verticalAlign=middle;points=[];fillColor=none;strokeColor=none;rounded=0;" vertex="1" parent="1">
          <mxGeometry x="390" y="190" width="100" height="20" as="geometry" />
        </mxCell>
        <mxCell id="Es_6yVM3xkazfsAKDXxf-4" value="用户名" style="text;html=1;resizable=0;autosize=1;align=center;verticalAlign=middle;points=[];fillColor=none;strokeColor=none;rounded=0;" vertex="1" parent="1">
          <mxGeometry x="285" y="250" width="50" height="20" as="geometry" />
        </mxCell>
        <mxCell id="Es_6yVM3xkazfsAKDXxf-5" value="密码" style="text;html=1;resizable=0;autosize=1;align=center;verticalAlign=middle;points=[];fillColor=none;strokeColor=none;rounded=0;" vertex="1" parent="1">
          <mxGeometry x="290" y="290" width="40" height="20" as="geometry" />
        </mxCell>
        <mxCell id="Es_6yVM3xkazfsAKDXxf-6" value="" style="whiteSpace=wrap;html=1;" vertex="1" parent="1">
          <mxGeometry x="350" y="250" width="220" height="20" as="geometry" />
        </mxCell>
        <mxCell id="Es_6yVM3xkazfsAKDXxf-7" value="" style="whiteSpace=wrap;html=1;" vertex="1" parent="1">
          <mxGeometry x="350" y="290" width="220" height="20" as="geometry" />
        </mxCell>
        <mxCell id="Es_6yVM3xkazfsAKDXxf-8" value="注册新账号" style="text;html=1;resizable=0;autosize=1;align=center;verticalAlign=middle;points=[];fillColor=none;strokeColor=none;rounded=0;" vertex="1" parent="1">
          <mxGeometry x="400" y="370" width="80" height="20" as="geometry" />
        </mxCell>
        <mxCell id="Es_6yVM3xkazfsAKDXxf-10" value="&lt;font style=&quot;font-size: 20px&quot;&gt;CourseLearning学习网站&lt;/font&gt;" style="text;html=1;resizable=0;autosize=1;align=center;verticalAlign=middle;points=[];rounded=0;" vertex="1" parent="1">
          <mxGeometry x="95" y="100" width="240" height="20" as="geometry" />
        </mxCell>
        <mxCell id="id1VFgOqM-qkRJnT6AEF-1" value="&lt;font style=&quot;font-size: 20px&quot;&gt;登录&lt;/font&gt;" style="text;html=1;resizable=0;autosize=1;align=center;verticalAlign=middle;points=[];fillColor=none;strokeColor=none;rounded=0;" vertex="1" parent="1">
          <mxGeometry x="410" y="330" width="60" height="20" as="geometry" />
        </mxCell>
      </root>
    </mxGraphModel>
  </diagram>
  <diagram id="MzaBk6wbjn6aPo9vfyo5" name="注册选择图">
    <mxGraphModel dx="1037" dy="588" grid="1" gridSize="10" guides="1" tooltips="1" connect="1" arrows="1" fold="1" page="1" pageScale="1" pageWidth="850" pageHeight="1100" math="0" shadow="0">
      <root>
        <mxCell id="5M69UiXvrmc_Lsm3OQvh-0" />
        <mxCell id="5M69UiXvrmc_Lsm3OQvh-1" parent="5M69UiXvrmc_Lsm3OQvh-0" />
        <mxCell id="L1PRm_5adHsHg1qmoA5j-1" value="" style="whiteSpace=wrap;html=1;fontSize=24;gradientColor=none;" vertex="1" parent="5M69UiXvrmc_Lsm3OQvh-1">
          <mxGeometry x="80" y="80" width="720" height="360" as="geometry" />
        </mxCell>
        <mxCell id="ADZHgLEV-r-IfwHA3Y5q-0" value="&lt;font style=&quot;font-size: 24px;&quot;&gt;学生&lt;/font&gt;" style="text;html=1;resizable=0;autosize=1;align=center;verticalAlign=middle;points=[];fillColor=none;strokeColor=none;rounded=0;dashed=1;fontSize=24;" vertex="1" parent="5M69UiXvrmc_Lsm3OQvh-1">
          <mxGeometry x="330" y="275" width="60" height="30" as="geometry" />
        </mxCell>
        <mxCell id="8X5VrG0FtiOXz12tc_rD-0" value="" style="whiteSpace=wrap;html=1;dashed=1;" vertex="1" parent="5M69UiXvrmc_Lsm3OQvh-1">
          <mxGeometry x="235" y="160" width="410" height="240" as="geometry" />
        </mxCell>
        <mxCell id="ADZHgLEV-r-IfwHA3Y5q-2" value="学生" style="whiteSpace=wrap;html=1;fontSize=24;gradientColor=none;" vertex="1" parent="5M69UiXvrmc_Lsm3OQvh-1">
          <mxGeometry x="295" y="240" width="110" height="100" as="geometry" />
        </mxCell>
        <mxCell id="V9B8LSIGuVl0-6s0DxQZ-0" value="&lt;font style=&quot;font-size: 20px&quot;&gt;用户注册&lt;/font&gt;" style="text;html=1;resizable=0;autosize=1;align=center;verticalAlign=middle;points=[];fillColor=none;strokeColor=none;rounded=0;" vertex="1" parent="5M69UiXvrmc_Lsm3OQvh-1">
          <mxGeometry x="390" y="190" width="100" height="20" as="geometry" />
        </mxCell>
        <mxCell id="RyGNkTkpiKzY83s95exE-0" value="&lt;font style=&quot;font-size: 20px&quot;&gt;CourseLearning学习网站&lt;/font&gt;" style="text;html=1;resizable=0;autosize=1;align=center;verticalAlign=middle;points=[];fillColor=none;strokeColor=none;rounded=0;" vertex="1" parent="5M69UiXvrmc_Lsm3OQvh-1">
          <mxGeometry x="100" y="100" width="240" height="20" as="geometry" />
        </mxCell>
        <mxCell id="P46ySx2B3EJIh7PdwsY9-2" value="教师" style="whiteSpace=wrap;html=1;fontSize=24;gradientColor=none;" vertex="1" parent="5M69UiXvrmc_Lsm3OQvh-1">
          <mxGeometry x="490" y="240" width="110" height="100" as="geometry" />
        </mxCell>
      </root>
    </mxGraphModel>
  </diagram>
  <diagram id="g2tQRcfDg0WbWRHYO36u" name="学生注册图">
    <mxGraphModel dx="1037" dy="588" grid="1" gridSize="10" guides="1" tooltips="1" connect="1" arrows="1" fold="1" page="1" pageScale="1" pageWidth="850" pageHeight="1100" math="0" shadow="0">
      <root>
        <mxCell id="oUpSlTPJ0CVUwffjeSo6-0" />
        <mxCell id="oUpSlTPJ0CVUwffjeSo6-1" parent="oUpSlTPJ0CVUwffjeSo6-0" />
        <mxCell id="k65pzRalH5yszTpKtU6d-0" value="" style="whiteSpace=wrap;html=1;fontSize=24;gradientColor=none;" vertex="1" parent="oUpSlTPJ0CVUwffjeSo6-1">
          <mxGeometry x="80" y="70" width="720" height="360" as="geometry" />
        </mxCell>
        <mxCell id="WXJPG0Vn0n2SdB4VNmFJ-0" value="&lt;font style=&quot;font-size: 20px&quot;&gt;CourseLearning学习网站&lt;/font&gt;" style="text;html=1;resizable=0;autosize=1;align=center;verticalAlign=middle;points=[];fillColor=none;strokeColor=none;rounded=0;" vertex="1" parent="oUpSlTPJ0CVUwffjeSo6-1">
          <mxGeometry x="100" y="90" width="240" height="20" as="geometry" />
        </mxCell>
        <mxCell id="zXtMYDsuG8f5Pm2vosiz-0" value="" style="whiteSpace=wrap;html=1;dashed=1;" vertex="1" parent="oUpSlTPJ0CVUwffjeSo6-1">
          <mxGeometry x="235" y="130" width="410" height="280" as="geometry" />
        </mxCell>
        <mxCell id="5qIr4Ml_Jq4lHirzvmgB-0" value="&lt;font style=&quot;font-size: 20px&quot;&gt;学生注册&lt;/font&gt;" style="text;html=1;resizable=0;autosize=1;align=center;verticalAlign=middle;points=[];fillColor=none;strokeColor=none;rounded=0;" vertex="1" parent="oUpSlTPJ0CVUwffjeSo6-1">
          <mxGeometry x="390" y="150" width="100" height="20" as="geometry" />
        </mxCell>
        <mxCell id="CJHPWMz1QvBZnhQoUH_B-0" value="用户名" style="text;html=1;resizable=0;autosize=1;align=center;verticalAlign=middle;points=[];fillColor=none;strokeColor=none;rounded=0;" vertex="1" parent="oUpSlTPJ0CVUwffjeSo6-1">
          <mxGeometry x="285" y="200" width="50" height="20" as="geometry" />
        </mxCell>
        <mxCell id="0DKx6NDRU7Z8_Kd2QfLR-0" value="" style="whiteSpace=wrap;html=1;" vertex="1" parent="oUpSlTPJ0CVUwffjeSo6-1">
          <mxGeometry x="350" y="200" width="220" height="20" as="geometry" />
        </mxCell>
        <mxCell id="JodCT4PwhpyNcos4lfL0-0" value="密码" style="text;html=1;resizable=0;autosize=1;align=center;verticalAlign=middle;points=[];fillColor=none;strokeColor=none;rounded=0;" vertex="1" parent="oUpSlTPJ0CVUwffjeSo6-1">
          <mxGeometry x="290" y="230" width="40" height="20" as="geometry" />
        </mxCell>
        <mxCell id="VuqGjdwrBTSQeNCbmH_d-0" value="" style="whiteSpace=wrap;html=1;" vertex="1" parent="oUpSlTPJ0CVUwffjeSo6-1">
          <mxGeometry x="350" y="230" width="220" height="20" as="geometry" />
        </mxCell>
        <mxCell id="VuqGjdwrBTSQeNCbmH_d-2" value="再次确认密码" style="text;html=1;resizable=0;autosize=1;align=center;verticalAlign=middle;points=[];fillColor=none;strokeColor=none;rounded=0;" vertex="1" parent="oUpSlTPJ0CVUwffjeSo6-1">
          <mxGeometry x="265" y="260" width="90" height="20" as="geometry" />
        </mxCell>
        <mxCell id="VuqGjdwrBTSQeNCbmH_d-3" value="" style="whiteSpace=wrap;html=1;" vertex="1" parent="oUpSlTPJ0CVUwffjeSo6-1">
          <mxGeometry x="350" y="260" width="220" height="20" as="geometry" />
        </mxCell>
        <mxCell id="VuqGjdwrBTSQeNCbmH_d-4" value="&lt;font style=&quot;font-size: 20px&quot;&gt;确认&lt;/font&gt;" style="text;html=1;resizable=0;autosize=1;align=center;verticalAlign=middle;points=[];fillColor=none;strokeColor=none;rounded=0;" vertex="1" parent="oUpSlTPJ0CVUwffjeSo6-1">
          <mxGeometry x="410" y="370" width="60" height="20" as="geometry" />
        </mxCell>
        <mxCell id="VuqGjdwrBTSQeNCbmH_d-5" value="手机号" style="text;html=1;resizable=0;autosize=1;align=center;verticalAlign=middle;points=[];fillColor=none;strokeColor=none;rounded=0;" vertex="1" parent="oUpSlTPJ0CVUwffjeSo6-1">
          <mxGeometry x="285" y="290" width="50" height="20" as="geometry" />
        </mxCell>
        <mxCell id="VuqGjdwrBTSQeNCbmH_d-7" value="" style="whiteSpace=wrap;html=1;" vertex="1" parent="oUpSlTPJ0CVUwffjeSo6-1">
          <mxGeometry x="350" y="290" width="220" height="20" as="geometry" />
        </mxCell>
        <mxCell id="VuqGjdwrBTSQeNCbmH_d-9" value="验证码" style="text;html=1;resizable=0;autosize=1;align=center;verticalAlign=middle;points=[];fillColor=none;strokeColor=none;rounded=0;" vertex="1" parent="oUpSlTPJ0CVUwffjeSo6-1">
          <mxGeometry x="285" y="320" width="50" height="20" as="geometry" />
        </mxCell>
        <mxCell id="VuqGjdwrBTSQeNCbmH_d-10" value="" style="whiteSpace=wrap;html=1;" vertex="1" parent="oUpSlTPJ0CVUwffjeSo6-1">
          <mxGeometry x="350" y="320" width="220" height="20" as="geometry" />
        </mxCell>
        <mxCell id="VuqGjdwrBTSQeNCbmH_d-12" value="发送验证码" style="text;html=1;resizable=0;autosize=1;align=center;verticalAlign=middle;points=[];fillColor=none;strokeColor=none;rounded=0;" vertex="1" parent="oUpSlTPJ0CVUwffjeSo6-1">
          <mxGeometry x="570" y="290" width="80" height="20" as="geometry" />
        </mxCell>
      </root>
    </mxGraphModel>
  </diagram>
  <diagram id="lPePqexgRaWp2ED-qUcP" name="教师注册图">
    <mxGraphModel dx="1037" dy="588" grid="1" gridSize="10" guides="1" tooltips="1" connect="1" arrows="1" fold="1" page="1" pageScale="1" pageWidth="850" pageHeight="1100" math="0" shadow="0">
      <root>
        <mxCell id="JjWGTXSWNraECLoeqEca-0" />
        <mxCell id="JjWGTXSWNraECLoeqEca-1" parent="JjWGTXSWNraECLoeqEca-0" />
        <mxCell id="MJUrFXitBllF-lIQQIsV-0" value="" style="whiteSpace=wrap;html=1;fontSize=24;gradientColor=none;" vertex="1" parent="JjWGTXSWNraECLoeqEca-1">
          <mxGeometry x="80" y="90" width="720" height="360" as="geometry" />
        </mxCell>
        <mxCell id="CivDwao_FApbYAOO3REA-0" value="&lt;font style=&quot;font-size: 20px&quot;&gt;CourseLearning学习网站&lt;/font&gt;" style="text;html=1;resizable=0;autosize=1;align=center;verticalAlign=middle;points=[];fillColor=none;strokeColor=none;rounded=0;" vertex="1" parent="JjWGTXSWNraECLoeqEca-1">
          <mxGeometry x="100" y="110" width="240" height="20" as="geometry" />
        </mxCell>
        <mxCell id="uwDqoOxLPMR6iuRT3Trl-0" value="" style="whiteSpace=wrap;html=1;dashed=1;" vertex="1" parent="JjWGTXSWNraECLoeqEca-1">
          <mxGeometry x="235" y="150" width="410" height="290" as="geometry" />
        </mxCell>
        <mxCell id="ie3AdQ59GbA2v5N_gZXE-0" value="&lt;font style=&quot;font-size: 20px&quot;&gt;教师注册&lt;/font&gt;" style="text;html=1;resizable=0;autosize=1;align=center;verticalAlign=middle;points=[];fillColor=none;strokeColor=none;rounded=0;" vertex="1" parent="JjWGTXSWNraECLoeqEca-1">
          <mxGeometry x="390" y="160" width="100" height="20" as="geometry" />
        </mxCell>
        <mxCell id="uWQPRboacI-Wp8eUPBY5-0" value="用户名" style="text;html=1;resizable=0;autosize=1;align=center;verticalAlign=middle;points=[];fillColor=none;strokeColor=none;rounded=0;" vertex="1" parent="JjWGTXSWNraECLoeqEca-1">
          <mxGeometry x="285" y="200" width="50" height="20" as="geometry" />
        </mxCell>
        <mxCell id="nff_zRAsw406wh-UG5Hn-0" value="" style="whiteSpace=wrap;html=1;" vertex="1" parent="JjWGTXSWNraECLoeqEca-1">
          <mxGeometry x="350" y="200" width="220" height="20" as="geometry" />
        </mxCell>
        <mxCell id="uHL1gclQBdOxtAvL2wPv-0" value="密码" style="text;html=1;resizable=0;autosize=1;align=center;verticalAlign=middle;points=[];fillColor=none;strokeColor=none;rounded=0;" vertex="1" parent="JjWGTXSWNraECLoeqEca-1">
          <mxGeometry x="290" y="230" width="40" height="20" as="geometry" />
        </mxCell>
        <mxCell id="GcrbWgCO37eD0THQfnwC-0" value="" style="whiteSpace=wrap;html=1;" vertex="1" parent="JjWGTXSWNraECLoeqEca-1">
          <mxGeometry x="350" y="230" width="220" height="20" as="geometry" />
        </mxCell>
        <mxCell id="5DvOH-BL4ZQ3FH7omG2F-0" value="再次确认密码" style="text;html=1;resizable=0;autosize=1;align=center;verticalAlign=middle;points=[];fillColor=none;strokeColor=none;rounded=0;" vertex="1" parent="JjWGTXSWNraECLoeqEca-1">
          <mxGeometry x="265" y="260" width="90" height="20" as="geometry" />
        </mxCell>
        <mxCell id="RdQE2MCVyyfLDc6DAdXh-0" value="" style="whiteSpace=wrap;html=1;" vertex="1" parent="JjWGTXSWNraECLoeqEca-1">
          <mxGeometry x="350" y="260" width="220" height="20" as="geometry" />
        </mxCell>
        <mxCell id="dUWF0qrz2Z1opnlOITnn-0" value="手机号" style="text;html=1;resizable=0;autosize=1;align=center;verticalAlign=middle;points=[];fillColor=none;strokeColor=none;rounded=0;" vertex="1" parent="JjWGTXSWNraECLoeqEca-1">
          <mxGeometry x="285" y="290" width="50" height="20" as="geometry" />
        </mxCell>
        <mxCell id="TxvQ1Ah93ifedx7YRt3l-0" value="" style="whiteSpace=wrap;html=1;" vertex="1" parent="JjWGTXSWNraECLoeqEca-1">
          <mxGeometry x="350" y="290" width="220" height="20" as="geometry" />
        </mxCell>
        <mxCell id="kxQZu2QJWpufQbtrwdBi-0" value="发送验证码" style="text;html=1;resizable=0;autosize=1;align=center;verticalAlign=middle;points=[];fillColor=none;strokeColor=none;rounded=0;" vertex="1" parent="JjWGTXSWNraECLoeqEca-1">
          <mxGeometry x="570" y="320" width="80" height="20" as="geometry" />
        </mxCell>
        <mxCell id="c9ELENaMBtMj56f4-VSc-0" value="验证码" style="text;html=1;resizable=0;autosize=1;align=center;verticalAlign=middle;points=[];fillColor=none;strokeColor=none;rounded=0;" vertex="1" parent="JjWGTXSWNraECLoeqEca-1">
          <mxGeometry x="285" y="320" width="50" height="20" as="geometry" />
        </mxCell>
        <mxCell id="yuWlIEeucC0w2z7gdVK5-0" value="" style="whiteSpace=wrap;html=1;" vertex="1" parent="JjWGTXSWNraECLoeqEca-1">
          <mxGeometry x="350" y="320" width="220" height="20" as="geometry" />
        </mxCell>
        <mxCell id="3S6VSgq2K8wBic_VCL-t-0" value="所属学校" style="text;html=1;resizable=0;autosize=1;align=center;verticalAlign=middle;points=[];fillColor=none;strokeColor=none;rounded=0;" vertex="1" parent="JjWGTXSWNraECLoeqEca-1">
          <mxGeometry x="280" y="350" width="60" height="20" as="geometry" />
        </mxCell>
        <mxCell id="3S6VSgq2K8wBic_VCL-t-1" value="" style="whiteSpace=wrap;html=1;" vertex="1" parent="JjWGTXSWNraECLoeqEca-1">
          <mxGeometry x="350" y="350" width="220" height="20" as="geometry" />
        </mxCell>
        <mxCell id="3S6VSgq2K8wBic_VCL-t-2" value="教工号" style="text;html=1;resizable=0;autosize=1;align=center;verticalAlign=middle;points=[];fillColor=none;strokeColor=none;rounded=0;" vertex="1" parent="JjWGTXSWNraECLoeqEca-1">
          <mxGeometry x="285" y="380" width="50" height="20" as="geometry" />
        </mxCell>
        <mxCell id="3S6VSgq2K8wBic_VCL-t-3" value="" style="whiteSpace=wrap;html=1;" vertex="1" parent="JjWGTXSWNraECLoeqEca-1">
          <mxGeometry x="350" y="380" width="220" height="20" as="geometry" />
        </mxCell>
        <mxCell id="eETJ9y5Zp3DRq7PYNzEV-0" value="&lt;font style=&quot;font-size: 20px&quot;&gt;确认&lt;/font&gt;" style="text;html=1;resizable=0;autosize=1;align=center;verticalAlign=middle;points=[];fillColor=none;strokeColor=none;rounded=0;" vertex="1" parent="JjWGTXSWNraECLoeqEca-1">
          <mxGeometry x="410" y="410" width="60" height="20" as="geometry" />
        </mxCell>
      </root>
    </mxGraphModel>
  </diagram>
</mxfile>
